<?xml version="1.0" encoding="UTF-8" standalone="no"?>
<svg
   width="1200"
   height="600"
   version="1.1"
   id="svg201"
   sodipodi:docname="flag-cro-simple.svg"
   inkscape:version="1.4 (86a8ad7, 2024-10-11)"
   xmlns:inkscape="http://www.inkscape.org/namespaces/inkscape"
   xmlns:sodipodi="http://sodipodi.sourceforge.net/DTD/sodipodi-0.dtd"
   xmlns:xlink="http://www.w3.org/1999/xlink"
   xmlns="http://www.w3.org/2000/svg"
   xmlns:svg="http://www.w3.org/2000/svg">
  <defs
     id="defs201" />
  <sodipodi:namedview
     id="namedview201"
     pagecolor="#ffffff"
     bordercolor="#000000"
     borderopacity="0.25"
     inkscape:showpageshadow="2"
     inkscape:pageopacity="0.0"
     inkscape:pagecheckerboard="0"
     inkscape:deskcolor="#d1d1d1"
     inkscape:zoom="5.6568543"
     inkscape:cx="618.45327"
     inkscape:cy="146.10594"
     inkscape:window-width="1920"
     inkscape:window-height="1009"
     inkscape:window-x="-8"
     inkscape:window-y="-8"
     inkscape:window-maximized="1"
     inkscape:current-layer="svg201" />
  <rect
     fill="#171796"
     width="1200"
     height="600"
     id="rect1" />
  <rect
     fill="#fff"
     width="1200"
     height="400"
     id="rect2" />
  <rect
     fill="#f00"
     width="1200"
     height="200"
     id="rect3" />
  <g
     transform="scale(0.00296202)"
     id="g201">
    <g
       id="g18">
      <path
         fill="#f00"
         d="m202577,153674,0,0c21658,0,39377-17720,39377-39377v-46791h-78755v46791c0,21658,17720,39377,39377,39377z"
         id="path3" />
      <path
         fill="#fff"
         d="m202577,153043,0,0c21245,0,38626-17382,38626-38626v-46153h-77253v46153c0,21245,17382,38626,38627,38626z"
         id="path4" />
      <g
         fill="#f00"
         id="g17">
        <path
           d="m180254,69716-14865,0,0,16332,14865,0z"
           id="path5" />
        <path
           d="m180254,102379,14865,0,0-16331-14865,0z"
           id="path6" />
        <path
           d="m165389,114326c0,1483,92,2946,263,4385h14602v-16332h-14865v11947z"
           id="path7" />
        <path
           d="m209985,102379-14866,0,0,16332,14866,0z"
           id="path8" />
        <path
           d="m209985,135042,14865,0,0-16331-14865,0z"
           id="path9" />
        <path
           d="m224850,143976c3296-2488,6169-5509,8487-8933h-8487v8933z"
           id="path10" />
        <path
           d="m180255,135042,14865,0,0-16331-14865,0z"
           id="path11" />
        <path
           d="m171754,135042c2321,3429,5199,6454,8501,8944v-8944h-8501z"
           id="path12" />
        <path
           d="m205141,151374c1645-115,3262-337,4843-661v-15671h-14865v15673c1576,323,3189,544,4829,658,1731,107,3462,101,5192,0z"
           id="path13" />
        <path
           d="m239437,118711c172-1444,264-2912,264-4400v-11931h-14852v16332h14588z"
           id="path14" />
        <path
           d="m209985,102379,14865,0,0-16331-14865,0z"
           id="path15" />
        <path
           d="m209985,69716-14865,0,0,16332,14865,0z"
           id="path16" />
        <path
           d="m239701,86048,0-16332-14851,0,0,16332z"
           id="path17" />
      </g>
    </g>
    <g
       id="g200">
      <path
         fill="#fff"
         d="m240533,67027,9217-20893-7022-11339-11634,4307-8168-9337-10763,6168-9597-7860-9597,7860-10763-6168-8169,9336-11634-4307-7024,11342,9205,20897c11599-5250,24460-8175,37983-8175,13517,0,26372,2923,37968,8169z"
         id="path18" />
      <g
         id="g33">
        <path
           fill="#0093dd"
           d="m174293,40024-17,20-11537-4272-6456,10424,2473,5623,6265,14222c4678-2068,9555-3764,14594-5048l-5321-20968z"
           id="path19" />
        <path
           fill="#fff"
           stroke="#000"
           stroke-width="118.162625"
           d="m173629,50332c413,783,647,1674,647,2617,0,3106-2533,5639-5639,5639-2737,0-5029-1968-5535-4561,974,1722,2823,2888,4935,2888,3121,0,5667-2545,5667-5667,0-312-26-618-75-917z"
           id="path20" />
        <polygon
           fill="#000"
           points="168461,42530,168442,42623,168049,44647,169602,46004,169673,46066,169583,46097,167634,46769,167235,48792,167216,48885,167145,48822,165589,47470,163638,48136,163547,48167,163566,48073,163959,46050,162407,44693,162335,44630,162425,44599,164374,43928,164773,41905,164792,41812,164863,41874,166419,43227,168370,42561"
           id="polygon20"
           style="fill:#ffcc00" />
        <g
           fill="#f7db17"
           id="g32" />
      </g>
      <g
         id="g36">
        <path
           fill="#171796"
           d="m193069,36886-20,16-10673-6116-8083,9238,5321,20968c4938-1257,10031-2115,15242-2546l-1788-21560z"
           id="path33" />
        <g
           fill="#f00"
           id="g35">
          <path
             d="m178294,55788c5221-1329,10608-2237,16119-2692l-452-5450c-5816,481-11502,1439-17013,2841l1345,5301z"
             id="path34" />
          <path
             d="m175619,45250c5797-1476,11777-2483,17895-2989l-444-5350c-6418,530-12691,1588-18772,3135l1321,5204z"
             id="path35" />
        </g>
      </g>
      <g
         id="g51">
        <path
           fill="#0093dd"
           d="m 212105,36890 -23,13 -9517,-7794 -9497,7778 1788,21560 c 2543,-210 5113,-322 7709,-322 2608,0 5190,113 7744,325 l 1795,-21560 z"
           id="path36"
           style="display:inline" />
        <g
           id="lion"
           style="display:inline">
          <path
             fill="#000000"
             d="m 202545,46585 c -373.16,359.456 -1323.3,1459.517 -988.35,1175.244 -245.6,602.422 -68.46,259.414 -383.89,43.839 -330.83,-93.561 -841.32,-640.776 -707.63,-277.781 -339.83,-38.445 -1249.78,-221.601 -1016.73,-299.168 180.56,444.839 512.59,835.349 745.47,1265.27 187.57,312.4 437.15,965.766 -180.15,657.381 -325.39,-34.279 -907.69,-401.699 -690.95,187.04 178.31,625.018 437.66,1413.686 490.31,1272.508 -155.96,72.277 -592.67,226.139 -641.14,157.301 171.44,328.494 750.64,810.626 714.97,738.272 -293.55,240.276 -601.4,1251.37 -477.51,1051.278 287.17,287.819 1112.23,-49.89 696.67,483.645 -301.55,532.126 750.94,55.162 592.05,334.512 -59.1,394.232 -385.89,1077.027 317.94,887.477 385.96,-210.478 362.51,753.96 446.61,404.991 165.45,742.44 645.49,-766.965 931.27,12.866 391.39,846.745 645.39,-547.427 861.98,-150.023 102.22,262.244 514.55,608.455 471.69,76.023 -238.38,-840.429 879.11,38.139 927.51,-587.063 -186.63,-235.399 -208.53,-761.131 212.08,-465.77 716.62,-28.872 -396.4,-1177.383 460.57,-843.471 346.27,24.77 -52.57,-754.589 298.35,-503.124 -72.44,-328.244 -298.47,-830.551 -334.6,-769.426 347.59,-89.803 1142.26,-857.815 410.66,-859.022 -305.88,7.606 125.98,-572.792 -209.17,-299.698 202.35,-305.882 -181.25,-1353.722 208.94,-1251.872 -426.14,-60.145 -1227.89,-34.978 -947.65,132.889 187.01,-712.219 695.58,-1304.439 1017.34,-1964.384 -460.76,-98.086 -1667.03,1085.698 -1102.26,392.016 -167.48,382.56 -1081.61,1000.388 -933.72,501.738 90.53,-109.86 -1621.81,-2338.077 -419.18,-731.353 -281.67,-236.205 -520.55,-512.528 -771.48,-772.135 z"
             id="path37"
             style="fill:#f7db17;fill-opacity:1" />
        </g>
        <use
           xlink:href="#lion"
           transform="rotate(-2.172962,-55532.79,156275.84)"
           id="use50"
           style="display:inline" />
        <use
           xlink:href="#lion"
           transform="rotate(2.1801813,459865.85,156275.76)"
           id="use51"
           style="display:inline" />
      </g>
      <g
         id="g181">
        <path
           fill="#171796"
           d="m 230880,40035 -25,9 -8100,-9258 -10650,6104 -1796,21560 c 5212,432 10304,1293 15241,2551 l 5329,-20965 z"
           id="path51"
           style="display:inline" />
        <g
           fill="#f7db17"
           id="g55"
           style="display:inline">
          <path
             d="m 221318,51461 c -486.21,224.829 -832.54,-110.11 -879.88,388.777 -365.22,547.507 -1384.65,2177.389 -1197.53,1671.484 -344.55,-11.94 -743.05,5.913 -291.59,166.739 222.68,790.493 -1614.88,194.304 -680.85,-56.403 -427.32,-86.349 -935.56,265.404 -162.81,-168.142 668.44,-394.932 1272.42,-926.784 1600.84,-1618.249 37.69,-387.534 908.92,-1242.157 330.55,-1257.865 22.86,184.722 269.77,-168.985 44.27,280.659 286.42,-58.865 764.55,-645.849 554.68,6.25 -502.46,826.992 498.2,-484.183 456.2,-325.081 33.46,317.416 -93.16,694.488 226.12,911.831 z"
             id="path53"
             style="display:inline" />
          <path
             d="m 214389.95,52150.702 c 424.36,371.343 129.16,386.058 201,196.566 -60.69,384.629 819.3,-482.038 807.02,-481.522 378.76,-467.297 612.79,-577.603 345.27,-849.429 251.25,-420.228 840.21,-1724.08 801.63,-1552.123 -178.58,1217.865 -447.69,2432.176 -497.58,3662.541 97.4,-155.629 -25.49,-268.211 36.83,19.621 -165.24,272.428 -314.18,1260.296 -183.51,473.197 77.59,-368.748 347.31,-1448.013 -4.38,-586.6 -109.1,221.757 -427.32,905.988 33.75,428.464 143.8,-315.151 238.13,-314.661 369.85,-215.788 81.16,-1064.85 416.96,-2140.818 1031.9,-3018.318 579.89,-526.859 495.34,1000.864 1150.05,839.843 339.5,-449.471 320.08,-308.625 254.83,-325.069 282.93,734.117 1301.59,1204.91 1946.32,631.243 252.37,-175.318 422.98,-727.276 302.98,-950.733 -92,298.023 781.86,1398.173 813.52,1378.758 -108.79,-478.567 151.54,-497.318 339.71,-117.03 481.01,466.898 -557.3,2203.337 -290.72,1701.863 -147.55,290.237 -1011.85,1529.373 -853.97,1232.029 196.18,-252.253 550.9,-979.749 347.77,-210.083 -216.33,407.401 305.7,321.302 129.29,111.154 -561.8,198.879 1004.91,-827.724 479,-624.418 640.14,-834.822 1098.7,-1793.568 1716.94,-2640.115 -136.63,801.529 572.45,-1364.729 370.77,-758.726 90.02,-312.4 796.77,-26.48 558.32,-462.598 683.63,-208.091 1028.39,-1098.65 818.59,-1750.858 -331.49,-525.128 -583.9,-385.958 -287.6,-169.815 563.92,-94.493 1154.34,-1493.784 341.02,-1485.324 -627.75,606.022 -3051.73,-84.327 -1801.1,227.616 -5207.06,-1728.785 -223.34,200.342 -3948.94,-1524.488 -429.59,-57.961 -2893.41,-1721.747 -2457.8,-1265.973 -192.98,-164.859 76,-1736.742 190.68,-1359.623 -19.64,-322.305 -1013.73,-935.372 -334.38,-457.895 503.51,232.012 574.58,223.16 139.95,130.131 -1816.38,-400.607 -1144.36,-281.172 998.26,221.709 -165.64,-395.558 775.19,-996.85 -79.41,-666.383 -292.76,49.742 -470.81,160.06 122.68,56.65 -788.48,278.68 -2095.84,-1149.477 -1620.48,-831.056 -463.46,344.567 -2092.24,1400.143 -1908.32,889.538 -214.24,760.429 -187.18,1483.588 -346,2582.251 52.17,-715.232 1518.23,125.074 1174.82,-380.146 1079.5,1080.797 448.78,860.713 485.61,1398.284 -363.49,319.654 -861.37,1242.196 -686.15,1904.953 -449,3463.317 475.17,4178.42 -1008.02,4597.702 z"
             id="path54"
             style="display:inline"
             sodipodi:nodetypes="ccccccccccccccccccccccccccccccccccccccccccccc" />
          <path
             d="m 214960,42248 c -476.04,-89.059 96.43,-417.296 -229.83,-517.288 19.2,-240.085 262.12,-23.978 -136.14,-133.872 -771.86,-430.6 1363.65,-41.713 776.74,33.04 415.32,456.909 -563.73,156.67 -410.77,618.12 z"
             id="path55" />
        </g>
        <g
           fill="#ff0000"
           id="g180"
           style="display:inline">
          <path
             d="m 223164,42025 c 240.15,-7.028 965.18,-41.404 356.69,126.547 -159.01,-293.623 -228.85,-136.559 -356.69,-126.547 z"
             id="path167" />
          <path
             d="m 222565,41963 c 763.24,-186.004 145.01,798.765 -35.62,258.305 21.92,-84.387 32.82,-171.287 35.62,-258.305 z"
             id="path168" />
          <path
             d="m 218139,40691 c 572.96,-204.258 1038.91,1139.902 1358.06,320.688 350.6,-258.011 307.59,-211.02 -5.47,-322.016 316.99,43.645 347.44,1124.203 667.41,726.328 303.25,-626.629 42.2,-461.126 499.62,-240.75 308.36,57.802 -260.16,744.884 165,605.625 148.09,-258.033 587.32,-203.46 748.39,-149.364 220.26,131.563 -330.22,647.979 91.76,248.586 208.39,-362.704 617.11,182.694 803.73,258.062 -673.34,397.074 -1457.48,-286.173 -1475.24,-268.829 -819,-311.486 -1634.57,-803.757 -2545.87,-684.404 -142.91,-135.135 -26.09,-485.219 -307.39,-493.926 z"
             id="path169" />
          <path
             d="m 217116,40966 c 263.53,-349.106 1525.28,-254.655 1007.73,207.134 -688.88,110.934 -262.28,239.498 -1007.73,-207.134 z"
             id="path170" />
          <path
             d="m 220263,42558 c -383.73,-280.284 -1635.89,-625.703 -1507,-514 470.63,-254.118 -368.4,-962.223 319.56,-762.851 860.15,84.711 921.91,831.242 641.42,875.606 513.6,-92.928 48.92,-886.149 495.2,-473.052 529.57,266.584 867.68,841.404 50.82,874.297 z"
             id="path171" />
          <path
             d="m 221119,43202 c -147.37,-205.127 -1115.25,-625.002 -399,-659 291.47,-563.124 1401.33,444.77 676.65,618.272 -92.1,17.025 -186.41,18.524 -277.65,40.728 z"
             id="path172" />
          <path
             d="m 222016,43793 c -200.28,-122.884 -1155.87,-562.81 -458.5,-590.875 224.94,-567.59 1608.33,363.93 786.17,522.229 -107.62,20.332 -236.36,-5.792 -327.67,68.646 z"
             id="path173" />
          <path
             d="m 222974,44169 c -297.23,-85.509 -1176.25,-323.031 -439.17,-451.75 381.06,-278.503 1069.98,190.691 439.17,451.75 z"
             id="path174" />
          <path
             d="m 224970,43966 c 186.21,119.249 -811.75,390.49 -814.56,326.28 -317.71,87.232 -1580.69,-109.703 -653.1,-296.229 550.09,25.282 130.8,-57.953 331.44,-76.998 356.36,3.175 -362.86,603.778 129.73,220.817 241.79,-317.972 688.9,-44.337 1006.49,-173.87 z"
             id="path175" />
          <path
             d="m 220904,54095 c -221.45,100.341 -678.05,482.709 -190.83,385.273 -1036.18,1238.76 2336.12,-272.039 1076.42,73.891 22.98,-372.032 -580.6,-498.479 -885.59,-459.164 z"
             id="path176" />
          <path
             d="m 214511,52080 c -48.21,318.196 -443.51,419.486 -433.11,425.55 -134,552.092 1223.67,590.542 1040.72,-86.614 -201.05,-114.616 -448.57,-130.77 -607.61,-338.936 z"
             id="path177" />
          <path
             d="m 218719,53544 c 564.15,273.518 -407.39,735.912 22.29,517.062 -359.54,188.542 -1165.06,-315.995 -433.29,-454.062 -362.02,120.52 -677.41,-31.589 -151.91,-126.482 188.31,-59.376 380.71,19.777 562.91,63.482 z"
             id="path178" />
          <path
             d="m 215700,53373 c -450.1,347.895 -55.12,302.603 -67.15,338.185 -329.25,772.028 959.8,459.887 778.36,-96.54 -212.94,-112.458 -471.83,-158.48 -711.21,-241.645 z"
             id="path179" />
          <path
             d="m 216869,42243 c 622.22,31.07 2406.44,-490.385 1896.64,-303.427 -283.3,-324.948 -986.09,-616.4 -1162.64,-579.573 376.19,-35.562 482.52,1002.48 235.25,295.938 -177.72,-495.966 -1666.88,-121.133 -747.11,99.883 291.01,550.515 -886.77,317.137 -591.61,-30.204 -407.8,34.47 -628.09,587.69 -52.53,417.758 143.36,18.9 287.44,44.778 422,99.625 z m -961,-183 c 368.02,-478.438 979.71,-706.824 1541.92,-867.279 -299.56,-26.595 -2009.2,421.208 -1137.45,287.205 -237.46,28.33 -1004.76,416.948 -404.47,580.074 z"
             id="path180" />
        </g>
      </g>
      <g
         id="g199">
        <path
           fill="#0093dd"
           d="m240096,66034,8752-19837-6456-10424-11513,4263-5329,20965c5022,1281,9882,2973,14545,5034z"
           id="path181" />
        <path
           fill="#fff"
           d="m228935,47685c5767,1471,11350,3414,16705,5782l-3377,7657c-4934-2181-10076-3971-15390-5326z"
           id="path182" />
        <path
           fill="#f00"
           d="m242806,59894,2256-5113c-5283-2336-10790-4252-16479-5704l-1330,5231c5396,1377,10620,3195,15631,5410l-78,176z"
           id="path183" />
        <path
           fill="#000000"
           d="m 230207,53061 c 1308.79,-424.853 409.94,-1249.975 649.3,-902.313 -845.31,-489.8 -1782.66,-609.836 -804.88,-1562.419 541.33,-513.094 2785.68,950.899 2069.1,611.809 -547.13,739.717 1736.92,1326.781 1486.64,1194.051 1257.98,712.165 2727.8,1104.021 4175.02,1040.41 621.29,45.481 3256.75,1169.127 2500.37,841.957 410.04,190.893 2894.3,752.767 2225.32,540.63 1678.97,1160.996 -1081.12,883.651 -424.18,1022.924 -1023.12,-581.602 -4653.83,-1914.259 -2203.11,-1063.574 -733.77,810.209 1018.97,2804.563 965.8,2079.734 298.3,186.646 -94.75,938.622 -915.81,501.489 438.12,-1169.535 -2263.75,-1680.716 -2024.8,-1538.883 -663.47,-313.446 -2780.68,406.591 -2495.24,-132.724 -1207.73,-613.51 -398.83,-1418.507 623.25,-666.443 -220.16,-71.127 -3103.44,-668.683 -2375.79,-516.245 -473.8,-98.894 469.2,92.801 -787.17,-164.987 758.88,118.876 2853.58,403.65 2571.94,471.789 -751.56,-378.318 -2605.62,161.978 -2327.92,13.386 -445.21,-191.516 -2313.41,-1009.719 -1075.24,-539.819 657.73,220.146 2124.22,333.345 1430.79,93.375 -793.44,-709.233 -1871.19,-1006.833 -2920.87,-890.71 -414.25,-133.577 294.21,-316.191 -706.86,-533.315 l 183.97,60.931 z"
           id="path184" />
        <path
           fill="#ffffff"
           d="m 236801,55071 c -592.87,202.351 -1882.02,-727.096 -1829.72,-576.428 810.46,-260.418 2446.78,942.071 2283.4,717.214 -155.12,-34.468 -302.05,-94.974 -453.68,-140.786 z"
           id="path185" />
        <path
           fill="#000"
           d="m237521,39962,18,94,394,2040-1567,1366-72,63,91,32,1964,679,399,2040,19,94,72-63,1570-1361,1967,674,91,31-18-94-394-2041,1567-1366,72-63-91-31-1964-680-399-2040-19-94-72,63-1571,1362-1966-675z"
           id="path186"
           style="fill:#ffcc00" />
        <g
           fill="#f7db17"
           id="g198" />
      </g>
    </g>
  </g>
</svg>
