<svg viewBox="0 0 1200 600" width="100" height="50" xmlns:xlink="http://www.w3.org/1999/xlink" xmlns="http://www.w3.org/2000/svg">
    <path fill="#171796" d="M0 0h1200v600H0z"/>
    <path fill="#fff" d="M0 0h1200v400H0z"/>
    <path fill="red" d="M0 0h1200v200H0z"/>
    <path fill="red" d="M600.037 455.185c64.152 0 116.636-52.487 116.636-116.635V199.954H483.399V338.55c0 64.151 52.487 116.635 116.635 116.635z"/>
    <path fill="#fff" d="M600.037 453.316c62.928 0 114.411-51.485 114.411-114.41V202.198H485.623v136.706c0 62.929 51.486 114.411 114.414 114.411z"/>
    <g fill="red">
        <path d="M533.916 206.5h-44.03v48.376h44.03zM533.916 303.249h44.03v-48.373h-44.03zM489.886 338.636c0 4.393.272 8.726.779 12.988h43.251V303.25h-44.03v35.387zM621.98 303.249h-44.034v48.375h44.034zM621.98 399.997h44.03v-48.373h-44.03zM666.01 426.46A111.488 111.488 0 0 0 691.15 400H666.01v26.46zM533.919 399.997h44.03v-48.373h-44.03zM508.739 399.997a111.46 111.46 0 0 0 25.18 26.492v-26.492h-25.18z"/>
        <path d="M607.632 448.373a109.46 109.46 0 0 0 14.345-1.958v-46.418h-44.03v46.424c4.668.957 9.445 1.611 14.303 1.949 5.127.317 10.254.299 15.379 0zM709.217 351.624c.51-4.277.782-8.625.782-13.033v-35.34h-43.992v48.376h43.21zM621.98 303.249h44.03v-48.373h-44.03zM621.98 206.5h-44.03v48.376h44.03zM710 254.876V206.5h-43.99v48.376z"/>
    </g>
    <path fill="#fff" d="m712.464 198.535 27.3-61.885-20.799-33.587-34.46 12.758-24.194-27.656-31.88 18.27-28.426-23.282-28.427 23.281-31.88-18.27-24.197 27.654-34.46-12.757-20.805 33.595 27.265 61.897c34.357-15.55 72.451-24.214 112.507-24.214 40.037 0 78.114 8.658 112.461 24.196z"/>
    <path fill="#0093dd" d="m516.26 118.552-.051.06-34.173-12.655-19.123 30.876 7.325 16.656 18.558 42.126a274.588 274.588 0 0 1 43.227-14.953l-15.76-62.107z"/>
    <path fill="#fff" stroke="#000" stroke-width=".34976248" d="M514.293 149.084a16.572 16.572 0 0 1 1.916 7.752c0 9.2-7.503 16.703-16.703 16.703-8.107 0-14.896-5.83-16.395-13.51 2.885 5.1 8.362 8.554 14.618 8.554 9.244 0 16.786-7.538 16.786-16.785 0-.925-.077-1.83-.222-2.717z"/>
    <path style="fill:#fc0" d="m168461 42530-19 93-393 2024 1553 1357 71 62-90 31-1949 672-399 2023-19 93-71-63-1556-1352-1951 666-91 31 19-94 393-2023-1552-1357-72-63 90-31 1949-671 399-2023 19-93 71 62 1556 1353 1951-666z" transform="scale(.00296)"/>
    <path fill="#171796" d="m571.874 109.257-.059.047-31.614-18.115-23.942 27.363 15.761 62.108a274.725 274.725 0 0 1 45.147-7.542l-5.296-63.86z"/>
    <g fill="red">
        <path d="M528.11 165.245a290.314 290.314 0 0 1 47.745-7.974l-1.339-16.143a306.934 306.934 0 0 0-50.392 8.416l3.983 15.701zM520.187 134.031a322.445 322.445 0 0 1 53.005-8.853l-1.315-15.847a338.401 338.401 0 0 0-55.603 9.286l3.913 15.414z"/>
    </g>
    <g transform="scale(.00296)">
        <path fill="#0093dd" d="m212105 36890-23 13-9517-7794-9497 7778 1788 21560c2543-210 5113-322 7709-322 2608 0 5190 113 7744 325l1795-21560z" style="display:inline"/>
        <g style="display:inline">
            <path d="M202545 46585c-373.16 359.456-1323.3 1459.517-988.35 1175.244-245.6 602.422-68.46 259.414-383.89 43.839-330.83-93.561-841.32-640.776-707.63-277.781-339.83-38.445-1249.78-221.601-1016.73-299.168 180.56 444.839 512.59 835.349 745.47 1265.27 187.57 312.4 437.15 965.766-180.15 657.381-325.39-34.279-907.69-401.699-690.95 187.04 178.31 625.018 437.66 1413.686 490.31 1272.508-155.96 72.277-592.67 226.139-641.14 157.301 171.44 328.494 750.64 810.626 714.97 738.272-293.55 240.276-601.4 1251.37-477.51 1051.278 287.17 287.819 1112.23-49.89 696.67 483.645-301.55 532.126 750.94 55.162 592.05 334.512-59.1 394.232-385.89 1077.027 317.94 887.477 385.96-210.478 362.51 753.96 446.61 404.991 165.45 742.44 645.49-766.965 931.27 12.866 391.39 846.745 645.39-547.427 861.98-150.023 102.22 262.244 514.55 608.455 471.69 76.023-238.38-840.429 879.11 38.139 927.51-587.063-186.63-235.399-208.53-761.131 212.08-465.77 716.62-28.872-396.4-1177.383 460.57-843.471 346.27 24.77-52.57-754.589 298.35-503.124-72.44-328.244-298.47-830.551-334.6-769.426 347.59-89.803 1142.26-857.815 410.66-859.022-305.88 7.606 125.98-572.792-209.17-299.698 202.35-305.882-181.25-1353.722 208.94-1251.872-426.14-60.145-1227.89-34.978-947.65 132.889 187.01-712.219 695.58-1304.439 1017.34-1964.384-460.76-98.086-1667.03 1085.698-1102.26 392.016-167.48 382.56-1081.61 1000.388-933.72 501.738 90.53-109.86-1621.81-2338.077-419.18-731.353-281.67-236.205-520.55-512.528-771.48-772.135z" style="fill:#f7db17;fill-opacity:1" id="a"/>
        </g>
        <use xlink:href="#a" transform="rotate(-2.173 -55532.79 156275.84)" style="display:inline"/>
        <use xlink:href="#a" transform="rotate(2.18 459865.85 156275.76)" style="display:inline"/>
    </g>
    <path fill="#171796" d="m230880 40035-25 9-8100-9258-10650 6104-1796 21560c5212 432 10304 1293 15241 2551l5329-20965z" style="display:inline" transform="scale(.00296)"/>
    <g fill="#f7db17" style="display:inline">
        <path d="M221318 51461c-486.21 224.829-832.54-110.11-879.88 388.777-365.22 547.507-1384.65 2177.389-1197.53 1671.484-344.55-11.94-743.05 5.913-291.59 166.739 222.68 790.493-1614.88 194.304-680.85-56.403-427.32-86.349-935.56 265.404-162.81-168.142 668.44-394.932 1272.42-926.784 1600.84-1618.249 37.69-387.534 908.92-1242.157 330.55-1257.865 22.86 184.722 269.77-168.985 44.27 280.659 286.42-58.865 764.55-645.849 554.68 6.25-502.46 826.992 498.2-484.183 456.2-325.081 33.46 317.416-93.16 694.488 226.12 911.831z" style="display:inline" transform="scale(.00296)"/>
        <path d="M214389.95 52150.702c424.36 371.343 129.16 386.058 201 196.566-60.69 384.629 819.3-482.038 807.02-481.522 378.76-467.297 612.79-577.603 345.27-849.429 251.25-420.228 840.21-1724.08 801.63-1552.123-178.58 1217.865-447.69 2432.176-497.58 3662.541 97.4-155.629-25.49-268.211 36.83 19.621-165.24 272.428-314.18 1260.296-183.51 473.197 77.59-368.748 347.31-1448.013-4.38-586.6-109.1 221.757-427.32 905.988 33.75 428.464 143.8-315.151 238.13-314.661 369.85-215.788 81.16-1064.85 416.96-2140.818 1031.9-3018.318 579.89-526.859 495.34 1000.864 1150.05 839.843 339.5-449.471 320.08-308.625 254.83-325.069 282.93 734.117 1301.59 1204.91 1946.32 631.243 252.37-175.318 422.98-727.276 302.98-950.733-92 298.023 781.86 1398.173 813.52 1378.758-108.79-478.567 151.54-497.318 339.71-117.03 481.01 466.898-557.3 2203.337-290.72 1701.863-147.55 290.237-1011.85 1529.373-853.97 1232.029 196.18-252.253 550.9-979.749 347.77-210.083-216.33 407.401 305.7 321.302 129.29 111.154-561.8 198.879 1004.91-827.724 479-624.418 640.14-834.822 1098.7-1793.568 1716.94-2640.115-136.63 801.529 572.45-1364.729 370.77-758.726 90.02-312.4 796.77-26.48 558.32-462.598 683.63-208.091 1028.39-1098.65 818.59-1750.858-331.49-525.128-583.9-385.958-287.6-169.815 563.92-94.493 1154.34-1493.784 341.02-1485.324-627.75 606.022-3051.73-84.327-1801.1 227.616-5207.06-1728.785-223.34 200.342-3948.94-1524.488-429.59-57.961-2893.41-1721.747-2457.8-1265.973-192.98-164.859 76-1736.742 190.68-1359.623-19.64-322.305-1013.73-935.372-334.38-457.895 503.51 232.012 574.58 223.16 139.95 130.131-1816.38-400.607-1144.36-281.172 998.26 221.709-165.64-395.558 775.19-996.85-79.41-666.383-292.76 49.742-470.81 160.06 122.68 56.65-788.48 278.68-2095.84-1149.477-1620.48-831.056-463.46 344.567-2092.24 1400.143-1908.32 889.538-214.24 760.429-187.18 1483.588-346 2582.251 52.17-715.232 1518.23 125.074 1174.82-380.146 1079.5 1080.797 448.78 860.713 485.61 1398.284-363.49 319.654-861.37 1242.196-686.15 1904.953-449 3463.317 475.17 4178.42-1008.02 4597.702z" style="display:inline" transform="scale(.00296)"/>
        <path d="M636.716 125.14c-1.41-.264.285-1.237-.68-1.533.056-.71.775-.07-.404-.396-2.286-1.276 4.039-.124 2.3.098 1.23 1.353-1.67.464-1.216 1.83z"/>
    </g>
    <g fill="red" style="display:inline">
        <path d="M661.016 124.479c.712-.02 2.86-.123 1.057.375-.471-.87-.678-.405-1.057-.375zM659.242 124.295c2.26-.55.43 2.366-.106.765.065-.25.098-.507.106-.765zM646.132 120.528c1.697-.605 3.077 3.376 4.023.95 1.038-.765.91-.626-.017-.954.94.129 1.03 3.33 1.977 2.151.899-1.856.125-1.366 1.48-.713.914.171-.77 2.206.489 1.794.439-.765 1.74-.603 2.217-.443.652.39-.978 1.92.272.737.617-1.075 1.827.54 2.38.764-1.994 1.176-4.317-.848-4.37-.796-2.425-.923-4.841-2.381-7.54-2.027-.424-.4-.078-1.438-.91-1.463z"/>
        <path d="M643.102 121.342c.78-1.034 4.518-.754 2.985.614-2.04.328-.777.709-2.985-.614zM652.423 126.058c-1.136-.83-4.845-1.854-4.463-1.523 1.394-.753-1.092-2.85.946-2.26 2.548.252 2.73 2.463 1.9 2.594 1.521-.275.145-2.625 1.467-1.401 1.568.79 2.57 2.492.15 2.59z"/>
        <path d="M654.959 127.965c-.437-.607-3.303-1.851-1.182-1.952.863-1.668 4.15 1.318 2.004 1.832-.272.05-.552.054-.822.12z"/>
        <path d="M657.616 129.716c-.593-.364-3.424-1.667-1.358-1.75.666-1.682 4.764 1.078 2.328 1.546-.318.06-.7-.017-.97.204z"/>
        <path d="M660.453 130.83c-.88-.254-3.484-.957-1.3-1.339 1.128-.825 3.169.565 1.3 1.338z"/>
        <path d="M666.366 130.228c.551.353-2.405 1.157-2.413.967-.941.258-4.682-.325-1.935-.878 1.63.075.388-.171.982-.228 1.056.01-1.075 1.789.384.654.717-.942 2.04-.131 2.982-.515zM654.322 160.23c-.656.298-2.008 1.43-.565 1.142-3.07 3.669 6.92-.806 3.188.219.068-1.102-1.72-1.477-2.623-1.36zM635.386 154.262c-.143.943-1.314 1.243-1.283 1.26-.397 1.636 3.625 1.75 3.083-.256-.596-.34-1.329-.387-1.8-1.004zM647.85 158.598c1.671.81-1.207 2.18.066 1.532-1.065.558-3.45-.936-1.283-1.345-1.073.357-2.007-.094-.45-.375.557-.176 1.127.059 1.667.188zM638.908 158.092c-1.333 1.03-.164.896-.2 1.002-.974 2.286 2.844 1.362 2.306-.286-.63-.333-1.397-.47-2.106-.716zM642.37 125.125c1.843.092 7.128-1.453 5.618-.9-.839-.962-2.92-1.825-3.444-1.716 1.115-.105 1.43 2.97.697.877-.526-1.47-4.937-.36-2.213.296.862 1.63-2.626.939-1.752-.09-1.208.102-1.86 1.74-.156 1.238.425.056.852.132 1.25.295zm-2.846-.542c1.09-1.418 2.902-2.094 4.567-2.57-.887-.078-5.951 1.248-3.37.851-.702.084-2.975 1.235-1.197 1.719z"/>
    </g>
    <path fill="#0093dd" d="m711.17 195.594 25.923-58.758-19.123-30.876-34.102 12.627-15.784 62.1a274.19 274.19 0 0 1 43.082 14.91z"/>
    <path fill="#fff" d="M678.11 141.244a314.594 314.594 0 0 1 49.48 17.126l-10.002 22.68a289.893 289.893 0 0 0-45.586-15.775z"/>
    <path fill="red" d="m719.196 177.407 6.683-15.145a310.646 310.646 0 0 0-48.812-16.895l-3.94 15.494a294.82 294.82 0 0 1 46.3 16.025l-.23.521z"/>
    <path d="M681.878 157.168c3.876-1.259 1.214-3.703 1.923-2.673-2.504-1.45-5.28-1.806-2.384-4.628 1.603-1.52 8.251 2.817 6.129 1.812-1.621 2.191 5.144 3.93 4.403 3.537 3.726 2.11 8.08 3.27 12.367 3.082 1.84.135 9.646 3.463 7.406 2.494 1.214.565 8.573 2.23 6.591 1.601 4.973 3.439-3.202 2.618-1.256 3.03-3.03-1.723-13.785-5.67-6.526-3.15-2.173 2.4 3.018 8.307 2.86 6.16.884.553-.28 2.78-2.712 1.485 1.298-3.464-6.705-4.978-5.997-4.558-1.966-.928-8.237 1.204-7.391-.393-3.578-1.817-1.182-4.202 1.846-1.974-.652-.21-9.193-1.98-7.037-1.53-1.404-.292 1.39.276-2.332-.488 2.248.352 8.452 1.196 7.618 1.398-2.226-1.121-7.718.48-6.895.04-1.319-.568-6.853-2.992-3.185-1.6 1.948.652 6.292.988 4.238.277-2.35-2.1-5.543-2.982-8.652-2.638-1.227-.396.872-.937-2.093-1.58l.544.18z"/>
    <path fill="#fff" d="M701.41 163.121c-1.757.6-5.575-2.153-5.42-1.707 2.4-.771 7.247 2.79 6.763 2.124-.46-.102-.895-.28-1.344-.417z"/>
    <path d="m237521 39962 18 94 394 2040-1567 1366-72 63 91 32 1964 679 399 2040 19 94 72-63 1570-1361 1967 674 91 31-18-94-394-2041 1567-1366 72-63-91-31-1964-680-399-2040-19-94-72 63-1571 1362-1966-675z" style="fill:#fc0" transform="scale(.00296)"/>
</svg>
