<?xml version="1.0" encoding="UTF-8" standalone="no"?>
<svg
   viewBox="0 0 195.74501 134.36499"
   xmlns="http://www.w3.org/2000/svg">
    <path
       d="m 97.493,45.791 c -5.115,8.355 -13.032,16.273 -21.388,21.388 8.356,5.115 16.273,13.032 21.388,21.388 5.115,-8.356 13.032,-16.273 21.388,-21.388 -8.356,-5.115 -16.273,-13.033 -21.388,-21.388 m 86.628,88.567 V 72.992 h -47.766 c -12.355,0 -33.049,20.694 -33.049,33.049 H 91.68 C 91.68,93.686 70.986,72.992 58.631,72.992 H 11.626 v 61.366 H 0 V 0 h 11.626 v 61.366 h 47.005 c 12.355,0 33.049,-20.695 33.049,-33.049 h 11.626 c 0,12.354 20.694,33.049 33.049,33.049 h 47.766 V 0 h 11.626 v 134.358 z"
       style="fill-opacity:1;fill-rule:nonzero;stroke:none"
       id="path1" />

</svg>