<?xml version="1.0" encoding="UTF-8" standalone="no"?>
<svg
   viewBox="0 0 260.64005 18.077391"
   xmlns="http://www.w3.org/2000/svg">
    <path
       d="m 256.33263,14.04373 c 0.34819,-0.348897 0.47307,-0.771878 0.47307,-1.220258 0,-0.522817 -0.12488,-0.921456 -0.42403,-1.220259 -0.54716,-0.547863 -1.56845,-0.771877 -7.71843,-1.095374 -6.94725,-0.348898 -9.06356,-0.921103 -10.25913,-2.116667 -0.69709,-0.696736 -0.99589,-1.667933 -0.99589,-2.913239 0,-1.27 0.27411,-2.465211 1.22026,-3.411361 C 239.84838,0.846314 242.23881,0 248.36444,0 c 4.85528,0 8.51535,0.697089 10.83169,1.618545 v 3.26143 c -2.63984,-1.120422 -7.02204,-1.941689 -10.83169,-1.941689 -4.75615,0 -6.12563,0.448381 -6.69784,1.020586 -0.29916,0.298803 -0.42404,0.697442 -0.42404,1.170517 0,0.448028 0.12488,0.821619 0.37395,1.07068 0.52317,0.52317 1.69333,0.82162 7.37058,1.095375 7.34554,0.373945 9.38706,0.921103 10.58192,2.116667 0.69744,0.697089 1.07104,1.768122 1.07104,3.013075 0,1.294694 -0.27411,2.489552 -1.22026,3.435702 -1.24495,1.245306 -3.71017,2.216503 -10.23373,2.216503 -4.83059,0 -9.56169,-0.772231 -12.25092,-1.942042 v -3.262136 c 2.58939,1.2446 8.09237,2.265892 12.25092,2.265892 4.88033,0 6.44913,-0.398286 7.14657,-1.095375 m -30.82801,0 c 0.34819,-0.348897 0.47307,-0.771878 0.47307,-1.220258 0,-0.522817 -0.12488,-0.921456 -0.42333,-1.220259 -0.54787,-0.547863 -1.5688,-0.771877 -7.71913,-1.095374 -6.94725,-0.348898 -9.06357,-0.921103 -10.25878,-2.116667 -0.69744,-0.696736 -0.99624,-1.667933 -0.99624,-2.913239 0,-1.27 0.2741,-2.465211 1.22025,-3.411361 C 209.02072,0.846314 211.41114,0 217.53643,0 c 4.85563,0 8.51605,0.697089 10.83168,1.618545 v 3.26143 c -2.63948,-1.120422 -7.02204,-1.941689 -10.83168,-1.941689 -4.75615,0 -6.12529,0.448381 -6.69784,1.020586 -0.29916,0.298803 -0.42369,0.697442 -0.42369,1.170517 0,0.448028 0.12453,0.821619 0.37394,1.07068 0.52282,0.52317 1.69299,0.82162 7.37024,1.095375 7.34554,0.373945 9.38706,0.921103 10.58227,2.116667 0.6978,0.697089 1.07104,1.768122 1.07104,3.013075 0,1.294694 -0.27411,2.489552 -1.22026,3.435702 -1.24496,1.245306 -3.71052,2.216503 -10.23409,2.216503 -4.83058,0 -9.56168,-0.772231 -12.25091,-1.942042 v -3.262136 c 2.5901,1.2446 8.09237,2.265892 12.25091,2.265892 4.88033,0 6.44949,-0.398286 7.14658,-1.095375 M 198.33684,7.395209 v 3.087511 h -18.45062 v 4.133497 h 18.79952 v 3.137252 H 176.05152 V 0.323779 h 22.63422 v 3.136899 h -18.79952 v 3.934531 z m -35.18538,6.996818 V 0.323603 h 3.8347 v 17.430044 h -5.40315 L 145.64698,3.435809 v 14.317838 h -3.83469 V 0.323603 h 5.67725 z M 128.68952,0.323709 h 3.85938 v 17.430044 h -3.85938 z m -16.33601,8.789844 c 2.78871,0 3.78495,-0.348897 4.33282,-0.897114 0.52281,-0.522111 0.69709,-1.120422 0.69709,-1.941688 0,-0.82162 -0.17428,-1.419225 -0.69709,-1.942042 -0.54787,-0.548217 -1.54411,-0.896761 -4.33282,-0.896761 h -10.60732 v 5.677605 z m -10.60732,3.112205 v 5.528028 H 97.88645 V 0.323743 h 14.26774 c 4.90538,0 6.49923,0.74683 7.69444,1.942394 1.09572,1.095375 1.36948,2.489553 1.36948,3.958872 0,1.494014 -0.32385,2.888544 -1.41958,3.983919 -1.17016,1.170164 -2.88819,2.01683 -7.71878,2.01683 z M 81.74997,9.113553 c 2.78871,0 3.78495,-0.348897 4.33282,-0.897114 0.52281,-0.522111 0.69708,-1.120422 0.69708,-1.941688 0,-0.82162 -0.17427,-1.419225 -0.69708,-1.942042 C 85.53492,3.784492 84.53868,3.435948 81.74997,3.435948 H 71.14265 v 5.677605 z m -10.60732,3.112205 v 5.528028 H 67.28291 V 0.323743 h 14.26774 c 4.90537,0 6.49922,0.74683 7.69443,1.942394 1.09538,1.095375 1.36949,2.489553 1.36949,3.958872 0,1.494014 -0.32385,2.888544 -1.41958,3.983919 -1.17016,1.170164 -2.88819,2.01683 -7.71878,2.01683 z M 40.61358,10.557826 H 51.64423 L 46.11656,2.415363 Z M 48.83083,0.223907 60.95686,17.753787 H 56.52491 L 53.73585,13.644984 H 38.52196 L 35.7329,17.753787 H 31.47522 L 43.6016,0.223907 Z M 21.28979,7.345573 V 0.323532 h 3.85939 V 17.753575 H 21.28979 V 10.53292 H 3.85974 v 7.220655 H 0 V 0.323532 h 3.85974 v 7.022041 z"
       style="fill-opacity:1;fill-rule:nonzero;stroke:none;stroke-width:0.352778"
       id="path1" />
</svg>
