<?xml version="1.0" encoding="UTF-8" standalone="no"?>
<svg
   viewBox="0 0 260.64005 35.915104"
   xmlns="http://www.w3.org/2000/svg">
    <path
       d="m 256.33263,14.04373 c 0.34819,-0.348897 0.47307,-0.771878 0.47307,-1.220258 0,-0.522817 -0.12488,-0.921456 -0.42403,-1.220259 -0.54716,-0.547863 -1.56845,-0.771877 -7.71843,-1.095374 -6.94725,-0.348898 -9.06356,-0.921103 -10.25913,-2.116667 -0.69709,-0.696736 -0.99589,-1.667933 -0.99589,-2.913239 0,-1.27 0.27411,-2.465211 1.22026,-3.411361 C 239.84838,0.846314 242.23881,0 248.36444,0 c 4.85528,0 8.51535,0.697089 10.83169,1.618545 v 3.26143 c -2.63984,-1.120422 -7.02204,-1.941689 -10.83169,-1.941689 -4.75615,0 -6.12563,0.448381 -6.69784,1.020586 -0.29916,0.298803 -0.42404,0.697442 -0.42404,1.170517 0,0.448028 0.12488,0.821619 0.37395,1.07068 0.52317,0.52317 1.69333,0.82162 7.37058,1.095375 7.34554,0.373945 9.38706,0.921103 10.58192,2.116667 0.69744,0.697089 1.07104,1.768122 1.07104,3.013075 0,1.294694 -0.27411,2.489552 -1.22026,3.435702 -1.24495,1.245306 -3.71017,2.216503 -10.23373,2.216503 -4.83059,0 -9.56169,-0.772231 -12.25092,-1.942042 v -3.262136 c 2.58939,1.2446 8.09237,2.265892 12.25092,2.265892 4.88033,0 6.44913,-0.398286 7.14657,-1.095375 m -30.82801,0 c 0.34819,-0.348897 0.47307,-0.771878 0.47307,-1.220258 0,-0.522817 -0.12488,-0.921456 -0.42333,-1.220259 -0.54787,-0.547863 -1.5688,-0.771877 -7.71913,-1.095374 -6.94725,-0.348898 -9.06357,-0.921103 -10.25878,-2.116667 -0.69744,-0.696736 -0.99624,-1.667933 -0.99624,-2.913239 0,-1.27 0.2741,-2.465211 1.22025,-3.411361 C 209.02072,0.846314 211.41114,0 217.53643,0 c 4.85563,0 8.51605,0.697089 10.83168,1.618545 v 3.26143 c -2.63948,-1.120422 -7.02204,-1.941689 -10.83168,-1.941689 -4.75615,0 -6.12529,0.448381 -6.69784,1.020586 -0.29916,0.298803 -0.42369,0.697442 -0.42369,1.170517 0,0.448028 0.12453,0.821619 0.37394,1.07068 0.52282,0.52317 1.69299,0.82162 7.37024,1.095375 7.34554,0.373945 9.38706,0.921103 10.58227,2.116667 0.6978,0.697089 1.07104,1.768122 1.07104,3.013075 0,1.294694 -0.27411,2.489552 -1.22026,3.435702 -1.24496,1.245306 -3.71052,2.216503 -10.23409,2.216503 -4.83058,0 -9.56168,-0.772231 -12.25091,-1.942042 v -3.262136 c 2.5901,1.2446 8.09237,2.265892 12.25091,2.265892 4.88033,0 6.44949,-0.398286 7.14658,-1.095375 M 198.33684,7.395209 v 3.087511 h -18.45062 v 4.133497 h 18.79952 v 3.137252 H 176.05152 V 0.323779 h 22.63422 v 3.136899 h -18.79952 v 3.934531 z m -35.18538,6.996818 V 0.323603 h 3.8347 v 17.430044 h -5.40315 L 145.64698,3.435809 v 14.317838 h -3.83469 V 0.323603 h 5.67725 z M 128.68952,0.323709 h 3.85938 v 17.430044 h -3.85938 z m -16.33601,8.789844 c 2.78871,0 3.78495,-0.348897 4.33282,-0.897114 0.52281,-0.522111 0.69709,-1.120422 0.69709,-1.941688 0,-0.82162 -0.17428,-1.419225 -0.69709,-1.942042 -0.54787,-0.548217 -1.54411,-0.896761 -4.33282,-0.896761 h -10.60732 v 5.677605 z m -10.60732,3.112205 v 5.528028 H 97.88645 V 0.323743 h 14.26774 c 4.90538,0 6.49923,0.74683 7.69444,1.942394 1.09572,1.095375 1.36948,2.489553 1.36948,3.958872 0,1.494014 -0.32385,2.888544 -1.41958,3.983919 -1.17016,1.170164 -2.88819,2.01683 -7.71878,2.01683 z M 81.74997,9.113553 c 2.78871,0 3.78495,-0.348897 4.33282,-0.897114 0.52281,-0.522111 0.69708,-1.120422 0.69708,-1.941688 0,-0.82162 -0.17427,-1.419225 -0.69708,-1.942042 C 85.53492,3.784492 84.53868,3.435948 81.74997,3.435948 H 71.14265 v 5.677605 z m -10.60732,3.112205 v 5.528028 H 67.28291 V 0.323743 h 14.26774 c 4.90537,0 6.49922,0.74683 7.69443,1.942394 1.09538,1.095375 1.36949,2.489553 1.36949,3.958872 0,1.494014 -0.32385,2.888544 -1.41958,3.983919 -1.17016,1.170164 -2.88819,2.01683 -7.71878,2.01683 z M 40.61358,10.557826 H 51.64423 L 46.11656,2.415363 Z M 48.83083,0.223907 60.95686,17.753787 H 56.52491 L 53.73585,13.644984 H 38.52196 L 35.7329,17.753787 H 31.47522 L 43.6016,0.223907 Z M 21.28979,7.345573 V 0.323532 h 3.85939 V 17.753575 H 21.28979 V 10.53292 H 3.85974 v 7.220655 H 0 V 0.323532 h 3.85974 v 7.022041 z m 182.99133,26.316376 h 4.32929 l -2.15653,-3.052586 z m 2.78659,-3.545417 4.07846,5.685719 h -1.01741 l -1.00965,-1.421694 h -5.3467 l -1.00189,1.421694 h -0.96872 l 4.07811,-5.685719 z m -8.48762,4.950777 v 0.735189 h -6.89751 v -5.653616 h 0.87242 v 4.918427 z m -10.98353,0 v 0.735189 h -6.89751 v -5.653616 h 0.87242 v 4.918427 z m -11.43603,-2.479817 v 0.710847 h -6.28333 v 1.776941 h 6.39657 v 0.727075 h -7.26087 v -5.653616 h 7.26087 v 0.727075 h -6.39657 v 1.711678 z m -11.19279,-1.711643 h -3.78001 v 4.926542 h -0.88054 v -4.926542 h -3.77966 v -0.727075 h 8.44021 z m -12.89015,3.900842 c 0.15381,-0.153811 0.21026,-0.339372 0.21026,-0.541161 0,-0.194028 -0.0402,-0.371828 -0.17745,-0.508706 -0.20214,-0.202141 -0.60607,-0.323144 -2.78659,-0.428272 -2.25319,-0.112889 -2.98027,-0.306916 -3.34328,-0.670278 -0.22648,-0.218016 -0.31538,-0.533047 -0.31538,-0.888647 0,-0.387703 0.0889,-0.751064 0.37147,-1.033639 0.38771,-0.387702 1.20333,-0.662163 3.14184,-0.662163 1.55046,0 2.77848,0.242358 3.52954,0.516819 v 0.759178 c -0.88088,-0.339373 -2.24543,-0.597959 -3.52954,-0.597959 -1.65594,0 -2.21297,0.186267 -2.45533,0.428625 -0.12912,0.128764 -0.18556,0.306564 -0.18556,0.508706 0,0.201789 0.0564,0.354894 0.16122,0.460022 0.21802,0.218017 0.72672,0.339372 2.72979,0.436033 2.43135,0.121709 3.03707,0.306917 3.40007,0.670631 0.2346,0.226483 0.33162,0.56515 0.33162,0.928511 0,0.388056 -0.097,0.759178 -0.37995,1.042106 -0.36336,0.371474 -1.10595,0.718608 -3.30341,0.718608 -1.61501,0 -3.10127,-0.266347 -3.99732,-0.63747 v -0.75953 c 0.87207,0.38735 2.55975,0.710494 3.99732,0.710494 1.82528,0 2.36644,-0.217664 2.60068,-0.451908 m -10.75725,-2.189199 v 0.710847 h -6.28333 v 1.776941 h 6.39657 v 0.727075 h -7.26087 v -5.653616 h 7.26087 v 0.727075 h -6.39657 v 1.711678 z m -23.96176,1.074457 h 4.32894 l -2.15618,-3.052586 z m 2.78624,-3.545417 4.07881,5.685719 h -1.01776 l -1.0093,-1.421694 h -5.3467 l -1.00153,1.421694 h -0.96908 l 4.07846,-5.685719 z m -11.33062,2.729405 3.1824,-2.696986 h 1.16276 v 0.01587 l -3.92501,3.311524 v 2.326217 h -0.88053 v -2.309989 l -3.91689,-3.327752 v -0.01587 h 1.1871 z m -12.95407,0.816012 h 4.32893 l -2.15618,-3.052586 z m 2.78624,-3.545417 4.07881,5.685719 h -1.01741 l -1.00965,-1.421694 h -5.3467 l -1.00154,1.421694 H 93.3808 l 4.07847,-5.685719 z m -9.16605,5.685896 h -0.87207 v -5.040136 l -3.74756,5.040136 H 83.68136 L 79.9338,30.762292 v 5.040136 h -0.86395 v -5.653616 h 1.42945 l 3.78778,5.128683 3.79624,-5.128683 h 1.397 z m -24.57567,-2.956491 3.18241,-2.696986 h 1.16276 v 0.01587 l -3.92501,3.311524 v 2.326217 h -0.88053 v -2.309989 l -3.91689,-3.327752 v -0.01587 h 1.18709 z M 54.18783,33.290402 H 50.2787 v 1.817159 h 3.9818 c 1.09855,0 1.58291,-0.08043 1.85773,-0.354895 0.16968,-0.170039 0.2099,-0.355953 0.2099,-0.549628 0,-0.217664 -0.0487,-0.387702 -0.19403,-0.533047 -0.28257,-0.282575 -0.86395,-0.379589 -1.94627,-0.379589 m 0,-2.430638 H 50.2787 v 1.735666 h 3.90913 c 1.23578,0 1.61537,-0.12065 1.85772,-0.371122 0.12912,-0.121003 0.18557,-0.290689 0.18557,-0.500592 0,-0.186266 -0.0402,-0.363714 -0.18557,-0.509058 -0.2667,-0.266347 -0.72707,-0.354894 -1.85772,-0.354894 m -4.77309,-0.710848 h 4.83765 c 1.47813,0 2.12407,0.153106 2.54388,0.573264 0.26705,0.266347 0.33972,0.557036 0.33972,0.904522 0,0.694267 -0.42827,1.122539 -1.37336,1.300692 0.97719,0.160867 1.46191,0.56515 1.46191,1.324328 0,0.314677 -0.0808,0.669925 -0.3556,0.936272 -0.41169,0.420511 -1.17087,0.614539 -2.64866,0.614539 h -4.80554 z"
       style="fill-opacity:1;fill-rule:nonzero;stroke:none;stroke-width:0.352778"
       id="path1" />
</svg>
