<svg viewBox="0 0 1888 135" xmlns="http://www.w3.org/2000/svg">
  <path
    d="M 159.73297,5.33949 V 52.50497 H 33.79994 V 5.33949 H 0 V 129.92757 H 33.79994 V 75.64275 h 125.93303 v 54.28482 h 33.79994
    V 5.33949 Z m 241.37784,124.58808 h 39.26616 L 354.57885,5.33949 h -38.64781 l -85.79812,124.58808 h 39.26617 L 288.4138,99.67046
    h 93.68228 z m -98.16543,-53.3949 30.29988,-48.41136 h 4.01937 l 30.29988,48.41136 z m 179.52026,53.3949 h 33.79993 V 88.03313 l
    80.13316,0.17798 c 37.43993,0 56.15989,-14.51246 56.15989,-39.60806 0,-12.81478 -5.19999,-26.71114 -15.59997,-33.29651 C 626.55867,
    8.72117 613.0387,5.33949 596.39873,5.33949 H 482.46564 Z M 516.26557,61.40412 V 28.47728 h 78.39983 c 13.86664,0 22.53329,5.87344
    22.53329,16.01846 0,11.21293 -7.45332,16.90838 -22.53329,16.90838 z m 183.75958,68.52345 h 33.79993 V 88.03313 l 80.13316,0.17798
    c 37.43993,0 56.15991,-14.51246 56.15991,-39.60806 0,-12.81478 -5.2,-26.71114 -15.59999,-33.29651 C 844.11818,8.72117 830.59821,
    5.33949 813.95824,5.33949 H 700.02515 Z M 733.82508,61.40412 V 28.47728 h 78.39983 c 13.86664,0 22.53329,5.87344 22.53329,16.01846
    0,11.21293 -7.45332,16.90838 -22.53329,16.90838 z m 185.89287,68.52345 h 33.7999 V 5.33949 h -33.7999 z m 92.59995,0 h 31.7999 V
    39.86818 l 107.2664,90.05939 h 45.2666 V 5.33949 h -31.7999 v 95.08509 L 1052.2778,5.33949 h -39.9599 z m 245.133,0 h 171.2263 V
    106.78978 H 1289.2508 V 78.58633 h 139.1597 V 55.17472 H 1289.2508 V 28.47728 h 139.4264 V 5.33949 h -171.2263 z m 311.3289,3.33949
    c 60.2477,0 90.3715,-12.10285 90.3715,-42.8939 0.1656,-27.05341 -27.4756, -33.41861 -58.5925,-35.37642 -41.8754,-3.73765 -90.2062,
    2.31378 -90.2062,-16.55242 -0.1654,-5.51746 3.6415,-7.61107 11.0896,-10.28082 7.4482,-2.66974 20.6895,-1.91562 39.7238,-1.91562
    15.3929,0 31.4481,1.60184 47.8341,4.80554 16.3861,3.20369 27.4756,6.00922 33.1031, 12.41661 h 9.1034 V 16.28083 C 1627.0414,
    8.09361 1596.2554,4 1559.0144,4 c -55.1168,0 -82.758,8.99276 -82.758,35.15625 -0.1655,32.39289 37.0755,37.37642 73.6546,38.97827
    36.579,1.24588 73.8199,-3.24589 73.6546,12.5946 0,13.34873 -15.393,20.29006 -52.4686,20.29006 -23.9997,0 -43.3651,-2.13579
    -58.2615,-6.2294 -14.7309,-4.27159 -27.1446,-10.14503 -37.241,-17.62032 l -2.3173,26.34148 c 19.0343,11.92486 53.2961, 19.75612
    95.5026,19.75612 z m 228.2401,0 c 60.2478,0 90.3715,-12.10285 90.3715,-42.8939 0.1656,-27.05341 -27.4756,-33.41861 -58.5925,
    -35.37642 -41.8754,-3.73765 -90.2062,2.31378 -90.2062,-16.55242 -0.1655,-5.51746 3.6414,-7.61107 11.0896,-10.28082 7.4482,-2.66974
    20.6895, -1.91562 39.7238,-1.91562 15.3929,0 31.448,1.60184 47.8341,4.80554 16.386,3.20369 27.4756,6.00922 33.1031,12.41661 h
    9.1034 V 16.28083 C 1855.2815,8.09361 1824.4955,4 1787.2545,4 c -55.1169,0 -82.758,8.99276 -82.758,35.15625 -0.1655,32.39289
    37.0755,37.37642 73.6546, 38.97827 36.5789,1.24588 73.8199,-3.24589 73.6545,12.5946 0,13.34873 -15.393,20.29006 -52.4685,20.29006
    -23.9997,0 -43.3651,-2.13579 -58.2615,-6.2294 -14.7309,-4.27159 -27.1446,-10.14503 -37.2411,-17.62032 l -2.3172,26.34148 c
    19.0343,11.92486 53.2961,19.75612 95.5026, 19.75612 z" id="happinessText">
  </path>
</svg>